# xmcd
#
# Track frame offsets:
#	150
#	22411
#	46414
#	72766
#	92206
#	117841
#	125180
#	149634
#	166696
#	195787
#
# Disc length: 3013 seconds
#
# Revision: 0
# Processed by: cddbd v1.5.2PL0 Copyright (c) Steve Scherf et al.
# Submitted via: EZCDAudioConverter 1.0.4.1
#
DISCID=8f0bc30a
DTITLE=Justin Rutledge - No Never Alone
DYEAR=2004
DGENRE=Country
TTITLE0=Too Sober to Sleep
TTITLE1=A Letter to Heather
TTITLE2=1855
TTITLE3=Lay Me Down Sweet Jesus
TTITLE4=Sleeveless in Vancouver
TTITLE5=Year of Jubilo
TTITLE6=Federal Mail
TTITLE7=Special
TTITLE8=The Suffering of Pepe O'Malley, Pt. 3
TTITLE9=The Blackest Crow
EXTD=
EXTT0=
EXTT1=
EXTT2=
EXTT3=
EXTT4=
EXTT5=
EXTT6=
EXTT7=
EXTT8=
EXTT9=
PLAYORDER=
